<svg width="37" height="32" viewBox="0 0 37 32" fill="none" xmlns="http://www.w3.org/2000/svg">
<path d="M3 11.0345C3 5.3091 6.8117 0 12.0312 0C15.6533 0 18.341 2.382 20 5.7611C21.6589 2.3822 24.3466 0 27.9688 0C33.1889 0 37 5.31 37 11.0345C37 23.2888 20 32 20 32C20 32 8.5487 26.4872 4.4431 17.4444H14.5848L16.1968 14.5788L18.0797 21.1692L22.4891 15.5H28V13.5H21.5109L18.9203 16.8308L16.8032 9.4212L13.4152 15.4444H3.67984C3.89182 16.1288 4.1486 16.7957 4.4431 17.4444L0 17.4443V15.4443L3.67984 15.4444C3.24643 14.0453 3 12.5731 3 11.0345Z" fill="#3371EB"/>
</svg>
